# xmcd
#
# Track frame offsets: 
#        150
#        10937
#        23345
#        34119
#        46869
#        58157
#        67853
#        78144
#        88250
#        99306
#        109855
#        119787
#        131068
#        140393
#        150645
#
# Disc length: 2134 seconds
#
# Revision: 0
# Processed by: cddbd v1.5.1PL0 Copyright (c) Steve Scherf et al.
# Submitted via: ExactAudioCopy v0.95a5
#
DISCID=bc08540f
DTITLE=Doyle Holly - Together Again
DYEAR=2003
DGENRE=Classic Country
TTITLE0=Act Naturally
TTITLE1=Foolin' Around
TTITLE2=Excuse Me (I Think I've Got A Heartache)
TTITLE3=Under Your Spell Again
TTITLE4=Mental Cruelty
TTITLE5=I Don't Care (Just As Long As You Love Me)
TTITLE6=I've Got A Tiger By The Tail
TTITLE7=Together Again
TTITLE8=Cryin' Time
TTITLE9=Before You Go
TTITLE10=Waitin' In Your Welfare Line
TTITLE11=Above And Beyond
TTITLE12=Love's Gonna Live Here
TTITLE13=My Heart Skips A Beat
TTITLE14=Sam's Place
EXTD=
EXTT0=
EXTT1=
EXTT2=
EXTT3=
EXTT4=
EXTT5=
EXTT6=
EXTT7=
EXTT8=
EXTT9=
EXTT10=
EXTT11=
EXTT12=
EXTT13=
EXTT14=
PLAYORDER=
